<svg cache-id="042c50c48fe040e783a75775883d6e4a" id="eLUXO5iZ7181" xmlns="http://www.w3.org/2000/svg" xmlns:xlink="http://www.w3.org/1999/xlink" viewBox="0 0 300 300" shape-rendering="geometricPrecision" text-rendering="geometricPrecision" width="300" height="300"><path d="M96.73848,42.472649L176.431487,1.927073l81.091131,40.545576L337.215625,1.927073v180.357864L257.522618,222.13144l-81.091131-39.846503L96.73848,222.13144v-179.658791Zm20.314783,49.778896v79.755236l39.854948-19.967802v-80.26285L117.053263,92.251545Zm79.657909-48.789043v48.789043c31.54466,15.505387,47.31699,23.372366,47.31699,23.600958s0-15.758874,0-47.962359l-47.31699-24.427642Zm40.07821,108.576477l-.348398,39.801863l21.081654,10.366798l59.39747-30.200859v-38.628258l-59.39747,28.746674-20.733256-10.086218Z" transform="translate(-66.977052 37.970744)" fill="#fff" stroke-width="0.6"/><path d="M136.44804,73.832867c0-22.55333,18.174462-40.836406,40.593811-40.836406s40.593811,18.283076,40.593811,40.836406c0,0,0,0,0,0s0,0,0,0c0,.008323,0,.016646,0,.024948-.002549,4.294425-.664049,8.433805-1.888291,12.321331-4.577917,16.381544-17.47977,37.910935-38.70552,64.588174-21.139874-24.861482-33.937912-46.074867-38.394133-63.640155-1.425641-4.167473-2.199678-8.639962-2.199678-13.294317v.00002Zm40.593811,14.933185c8.247379,0,14.933185-6.685806,14.933185-14.933185s-6.685806-14.933185-14.933185-14.933185-14.933185,6.685806-14.933185,14.933185s6.685806,14.933185,14.933185,14.933185Z" transform="translate(-22.315963-19.202108)" fill="#4396d9" fill-rule="evenodd"/></svg>